<svg width="103" height="56" viewBox="0 0 103 56" fill="none" xmlns="http://www.w3.org/2000/svg">
<g filter="url(#filter0_d_1_8)">
<mask id="path-1-inside-1_1_8" fill="white">
<path d="M2 9C2 4.58172 5.58172 1 10 1H93C97.4183 1 101 4.58172 101 9V45C101 49.4183 97.4183 53 93 53H10C5.58172 53 2 49.4183 2 45V9Z"/>
</mask>
<path d="M2 9C2 4.58172 5.58172 1 10 1H93C97.4183 1 101 4.58172 101 9V45C101 49.4183 97.4183 53 93 53H10C5.58172 53 2 49.4183 2 45V9Z" fill="#483D8B" shape-rendering="crispEdges"/>
<path d="M2 1H101H2ZM102 48C102 52.9706 97.9706 57 93 57H10C5.02944 57 1 52.9706 1 48L3 45C3 47.2091 6.13401 49 10 49H93C96.866 49 100 47.2091 100 45L102 48ZM10 57C5.02944 57 1 52.9706 1 48V10C1 5.02944 5.02944 1 10 1C6.13401 1 3 4.58172 3 9V45C3 47.2091 6.13401 49 10 49V57ZM93 1C97.9706 1 102 5.02944 102 10V48C102 52.9706 97.9706 57 93 57V49C96.866 49 100 47.2091 100 45V9C100 4.58172 96.866 1 93 1Z" fill="black" fill-opacity="0.61" mask="url(#path-1-inside-1_1_8)"/>
<g filter="url(#filter1_d_1_8)">
<mask id="path-3-outside-2_1_8" maskUnits="userSpaceOnUse" x="26" y="18" width="42" height="14" fill="black">
<rect fill="white" x="26" y="18" width="42" height="14"/>
<path d="M32.9716 30.2102L33.9943 29.1932L30.4432 25.6477H67V24.1705H30.4432L33.9943 20.6193L32.9716 19.608L27.6705 24.9091L32.9716 30.2102Z"/>
</mask>
<path d="M32.9716 30.2102L33.9943 29.1932L30.4432 25.6477H67V24.1705H30.4432L33.9943 20.6193L32.9716 19.608L27.6705 24.9091L32.9716 30.2102Z" fill="white"/>
<path d="M32.9716 30.2102L33.6767 30.9193L32.9696 31.6225L32.2645 30.9173L32.9716 30.2102ZM33.9943 29.1932L34.7009 28.4855L35.4111 29.1946L34.6995 29.9023L33.9943 29.1932ZM30.4432 25.6477L29.7366 26.3554L28.0262 24.6477H30.4432V25.6477ZM67 25.6477H68V26.6477H67V25.6477ZM67 24.1705V23.1705H68V24.1705H67ZM30.4432 24.1705V25.1705H28.029L29.7361 23.4633L30.4432 24.1705ZM33.9943 20.6193L34.6975 19.9083L35.4125 20.6154L34.7014 21.3264L33.9943 20.6193ZM32.9716 19.608L32.2645 18.9008L32.9676 18.1977L33.6747 18.8969L32.9716 19.608ZM27.6705 24.9091L26.9633 25.6162L26.2562 24.9091L26.9633 24.202L27.6705 24.9091ZM32.2665 29.5012L33.2892 28.4841L34.6995 29.9023L33.6767 30.9193L32.2665 29.5012ZM33.2878 29.9009L29.7366 26.3554L31.1497 24.9401L34.7009 28.4855L33.2878 29.9009ZM30.4432 24.6477H67V26.6477H30.4432V24.6477ZM66 25.6477V24.1705H68V25.6477H66ZM67 25.1705H30.4432V23.1705H67V25.1705ZM29.7361 23.4633L33.2872 19.9122L34.7014 21.3264L31.1503 24.8776L29.7361 23.4633ZM33.2912 21.3304L32.2684 20.319L33.6747 18.8969L34.6975 19.9083L33.2912 21.3304ZM33.6787 20.3151L28.3776 25.6162L26.9633 24.202L32.2645 18.9008L33.6787 20.3151ZM28.3776 24.202L33.6787 29.5031L32.2645 30.9173L26.9633 25.6162L28.3776 24.202Z" fill="black" mask="url(#path-3-outside-2_1_8)"/>
</g>
</g>
<defs>
<filter id="filter0_d_1_8" x="0" y="0" width="103" height="56" filterUnits="userSpaceOnUse" color-interpolation-filters="sRGB">
<feFlood flood-opacity="0" result="BackgroundImageFix"/>
<feColorMatrix in="SourceAlpha" type="matrix" values="0 0 0 0 0 0 0 0 0 0 0 0 0 0 0 0 0 0 127 0" result="hardAlpha"/>
<feOffset dy="1"/>
<feGaussianBlur stdDeviation="1"/>
<feComposite in2="hardAlpha" operator="out"/>
<feColorMatrix type="matrix" values="0 0 0 0 0 0 0 0 0 0 0 0 0 0 0 0 0 0 0.05 0"/>
<feBlend mode="normal" in2="BackgroundImageFix" result="effect1_dropShadow_1_8"/>
<feBlend mode="normal" in="SourceGraphic" in2="effect1_dropShadow_1_8" result="shape"/>
</filter>
<filter id="filter1_d_1_8" x="23.6705" y="19.608" width="47.3295" height="18.6023" filterUnits="userSpaceOnUse" color-interpolation-filters="sRGB">
<feFlood flood-opacity="0" result="BackgroundImageFix"/>
<feColorMatrix in="SourceAlpha" type="matrix" values="0 0 0 0 0 0 0 0 0 0 0 0 0 0 0 0 0 0 127 0" result="hardAlpha"/>
<feOffset dy="4"/>
<feGaussianBlur stdDeviation="2"/>
<feComposite in2="hardAlpha" operator="out"/>
<feColorMatrix type="matrix" values="0 0 0 0 0 0 0 0 0 0 0 0 0 0 0 0 0 0 0.25 0"/>
<feBlend mode="normal" in2="BackgroundImageFix" result="effect1_dropShadow_1_8"/>
<feBlend mode="normal" in="SourceGraphic" in2="effect1_dropShadow_1_8" result="shape"/>
</filter>
</defs>
</svg>
