<svg width="337" height="67" viewBox="0 0 337 67" fill="none" xmlns="http://www.w3.org/2000/svg">
<path d="M38.3489 9.90909H41.5001V25.3977H41.6958L52.4266 9.90909H55.3719V31H52.1898V15.532H51.9941L41.2839 31H38.3489V9.90909ZM69.8797 15.1818V17.8388H62.8047V31H59.7667V15.1818H69.8797ZM73.1339 36.9318V15.1818H76.141V17.7461H76.3985C76.577 17.4165 76.8344 17.0355 77.1709 16.603C77.5073 16.1705 77.9741 15.7928 78.5714 15.4702C79.1687 15.1406 79.9583 14.9759 80.94 14.9759C82.217 14.9759 83.3567 15.2985 84.3591 15.9439C85.3614 16.5893 86.1475 17.5195 86.7174 18.7347C87.2941 19.9499 87.5824 21.4123 87.5824 23.1218C87.5824 24.8313 87.2975 26.2971 86.7277 27.5192C86.1578 28.7344 85.3752 29.6715 84.3797 30.3306C83.3842 30.9828 82.2479 31.3089 80.9709 31.3089C80.0098 31.3089 79.2236 31.1476 78.6126 30.8249C78.0084 30.5022 77.5347 30.1246 77.1915 29.6921C76.8482 29.2596 76.5839 28.8751 76.3985 28.5387H76.2131V36.9318H73.1339ZM76.1513 23.0909C76.1513 24.2031 76.3127 25.178 76.6353 26.0156C76.958 26.8532 77.4249 27.5089 78.0359 27.9826C78.6469 28.4495 79.3953 28.6829 80.2809 28.6829C81.2009 28.6829 81.9699 28.4392 82.5878 27.9517C83.2057 27.4574 83.6725 26.788 83.9883 25.9435C84.311 25.0991 84.4723 24.1482 84.4723 23.0909C84.4723 22.0473 84.3144 21.1102 83.9986 20.2795C83.6897 19.4487 83.2228 18.7931 82.5981 18.3125C81.9802 17.8319 81.2078 17.5916 80.2809 17.5916C79.3884 17.5916 78.6332 17.8216 78.0153 18.2816C77.4043 18.7416 76.9409 19.3835 76.625 20.2074C76.3092 21.0312 76.1513 21.9924 76.1513 23.0909ZM97.6954 31.3192C96.2124 31.3192 94.9183 30.9794 93.8129 30.2997C92.7075 29.62 91.8494 28.6692 91.2383 27.4471C90.6273 26.225 90.3218 24.797 90.3218 23.163C90.3218 21.5221 90.6273 20.0872 91.2383 18.8583C91.8494 17.6294 92.7075 16.6751 93.8129 15.9954C94.9183 15.3157 96.2124 14.9759 97.6954 14.9759C99.1783 14.9759 100.472 15.3157 101.578 15.9954C102.683 16.6751 103.541 17.6294 104.152 18.8583C104.763 20.0872 105.069 21.5221 105.069 23.163C105.069 24.797 104.763 26.225 104.152 27.4471C103.541 28.6692 102.683 29.62 101.578 30.2997C100.472 30.9794 99.1783 31.3192 97.6954 31.3192ZM97.7057 28.7344C98.6668 28.7344 99.4632 28.4804 100.095 27.9723C100.726 27.4643 101.193 26.788 101.495 25.9435C101.804 25.0991 101.959 24.1688 101.959 23.1527C101.959 22.1435 101.804 21.2166 101.495 20.3722C101.193 19.5208 100.726 18.8377 100.095 18.3228C99.4632 17.8079 98.6668 17.5504 97.7057 17.5504C96.7376 17.5504 95.9343 17.8079 95.2959 18.3228C94.6642 18.8377 94.1939 19.5208 93.885 20.3722C93.5829 21.2166 93.4319 22.1435 93.4319 23.1527C93.4319 24.1688 93.5829 25.0991 93.885 25.9435C94.1939 26.788 94.6642 27.4643 95.2959 27.9723C95.9343 28.4804 96.7376 28.7344 97.7057 28.7344ZM108.506 31V15.1818H115.066C116.851 15.1818 118.265 15.5629 119.309 16.3249C120.352 17.0801 120.874 18.1065 120.874 19.4041C120.874 20.331 120.579 21.0656 119.989 21.608C119.398 22.1503 118.615 22.5142 117.641 22.6996C118.348 22.782 118.997 22.9948 119.587 23.3381C120.177 23.6745 120.651 24.1276 121.008 24.6974C121.372 25.2673 121.554 25.947 121.554 26.7365C121.554 27.5741 121.338 28.3156 120.905 28.9609C120.473 29.5994 119.844 30.1006 119.021 30.4645C118.204 30.8215 117.218 31 116.065 31H108.506ZM111.4 28.4254H116.065C116.827 28.4254 117.424 28.2435 117.857 27.8796C118.289 27.5157 118.506 27.0214 118.506 26.3967C118.506 25.6621 118.289 25.0853 117.857 24.6665C117.424 24.2409 116.827 24.0281 116.065 24.0281H111.4V28.4254ZM111.4 21.7727H115.097C115.674 21.7727 116.168 21.6903 116.58 21.5256C116.999 21.3608 117.318 21.1274 117.538 20.8253C117.764 20.5163 117.877 20.1525 117.877 19.7337C117.877 19.1226 117.627 18.6455 117.126 18.3022C116.624 17.9589 115.938 17.7873 115.066 17.7873H111.4V21.7727ZM131.595 31.3192C130.112 31.3192 128.818 30.9794 127.712 30.2997C126.607 29.62 125.749 28.6692 125.138 27.4471C124.527 26.225 124.221 24.797 124.221 23.163C124.221 21.5221 124.527 20.0872 125.138 18.8583C125.749 17.6294 126.607 16.6751 127.712 15.9954C128.818 15.3157 130.112 14.9759 131.595 14.9759C133.078 14.9759 134.372 15.3157 135.477 15.9954C136.583 16.6751 137.441 17.6294 138.052 18.8583C138.663 20.0872 138.968 21.5221 138.968 23.163C138.968 24.797 138.663 26.225 138.052 27.4471C137.441 28.6692 136.583 29.62 135.477 30.2997C134.372 30.9794 133.078 31.3192 131.595 31.3192ZM131.605 28.7344C132.566 28.7344 133.363 28.4804 133.994 27.9723C134.626 27.4643 135.093 26.788 135.395 25.9435C135.704 25.0991 135.858 24.1688 135.858 23.1527C135.858 22.1435 135.704 21.2166 135.395 20.3722C135.093 19.5208 134.626 18.8377 133.994 18.3228C133.363 17.8079 132.566 17.5504 131.605 17.5504C130.637 17.5504 129.834 17.8079 129.195 18.3228C128.564 18.8377 128.093 19.5208 127.784 20.3722C127.482 21.2166 127.331 22.1435 127.331 23.1527C127.331 24.1688 127.482 25.0991 127.784 25.9435C128.093 26.788 128.564 27.4643 129.195 27.9723C129.834 28.4804 130.637 28.7344 131.605 28.7344ZM145.423 26.685L152.395 15.1818H155.711V31H152.693V19.4865L145.752 31H142.405V15.1818H145.423V26.685ZM151.077 9.8267H153.61C153.61 10.987 153.198 11.931 152.374 12.6587C151.557 13.3796 150.452 13.7401 149.058 13.7401C147.671 13.7401 146.569 13.3796 145.752 12.6587C144.935 11.931 144.527 10.987 144.527 9.8267H147.05C147.05 10.3416 147.201 10.7982 147.503 11.1964C147.805 11.5877 148.323 11.7834 149.058 11.7834C149.779 11.7834 150.294 11.5877 150.603 11.1964C150.919 10.805 151.077 10.3485 151.077 9.8267ZM166.279 31L166.269 28.3327H166.836C167.275 28.3327 167.642 28.2401 167.937 28.0547C168.24 27.8625 168.487 27.5398 168.679 27.0866C168.871 26.6335 169.019 26.0088 169.122 25.2124C169.225 24.4091 169.3 23.3999 169.348 22.1847L169.626 15.1818H180.666V31H177.649V17.8388H172.479L172.232 23.2145C172.17 24.5189 172.036 25.6586 171.83 26.6335C171.631 27.6084 171.339 28.422 170.955 29.0742C170.57 29.7196 170.076 30.2036 169.472 30.5263C168.868 30.8421 168.133 31 167.268 31H166.279ZM189.376 31.3501C188.374 31.3501 187.467 31.1648 186.657 30.794C185.847 30.4164 185.205 29.8706 184.731 29.1566C184.265 28.4426 184.031 27.5672 184.031 26.5305C184.031 25.638 184.203 24.9034 184.546 24.3267C184.889 23.75 185.353 23.2934 185.936 22.957C186.52 22.6206 187.172 22.3666 187.893 22.195C188.614 22.0233 189.348 21.8929 190.097 21.8036C191.044 21.6938 191.813 21.6045 192.404 21.5359C192.994 21.4603 193.423 21.3402 193.691 21.1754C193.959 21.0107 194.093 20.7429 194.093 20.3722V20.3001C194.093 19.4007 193.839 18.7038 193.33 18.2095C192.829 17.7152 192.081 17.468 191.085 17.468C190.049 17.468 189.232 17.698 188.634 18.158C188.044 18.6112 187.636 19.1158 187.409 19.6719L184.515 19.0128C184.858 18.0516 185.36 17.2758 186.019 16.6854C186.685 16.0881 187.45 15.6555 188.315 15.3878C189.18 15.1132 190.09 14.9759 191.044 14.9759C191.676 14.9759 192.345 15.0514 193.052 15.2024C193.766 15.3466 194.432 15.6143 195.05 16.0057C195.675 16.397 196.187 16.9566 196.585 17.6843C196.983 18.4052 197.182 19.3423 197.182 20.4957V31H194.175V28.8374H194.051C193.852 29.2356 193.554 29.6269 193.155 30.0114C192.757 30.3958 192.246 30.7151 191.621 30.9691C190.996 31.2231 190.248 31.3501 189.376 31.3501ZM190.045 28.8786C190.897 28.8786 191.624 28.7103 192.229 28.3739C192.84 28.0375 193.303 27.5981 193.619 27.0558C193.942 26.5065 194.103 25.9195 194.103 25.2947V23.2557C193.993 23.3655 193.78 23.4685 193.464 23.5646C193.155 23.6539 192.802 23.7328 192.404 23.8015C192.005 23.8633 191.618 23.9216 191.24 23.9766C190.862 24.0246 190.547 24.0658 190.292 24.1001C189.695 24.1757 189.149 24.3027 188.655 24.4812C188.168 24.6597 187.776 24.9171 187.481 25.2536C187.193 25.5831 187.049 26.0225 187.049 26.5717C187.049 27.3338 187.33 27.9105 187.893 28.3018C188.456 28.6863 189.173 28.8786 190.045 28.8786ZM213.487 9.29119L214.764 11.2376C214.29 11.6701 213.751 11.979 213.147 12.1644C212.55 12.3429 211.86 12.4562 211.077 12.5043C210.294 12.5455 209.398 12.5832 208.389 12.6175C207.249 12.6519 206.312 12.899 205.578 13.359C204.843 13.8121 204.277 14.485 203.879 15.3775C203.487 16.2631 203.233 17.3754 203.116 18.7141H203.312C203.827 17.7324 204.541 16.9978 205.454 16.5103C206.374 16.0228 207.407 15.7791 208.554 15.7791C209.831 15.7791 210.967 16.0709 211.963 16.6545C212.958 17.238 213.741 18.0928 214.311 19.2188C214.887 20.3378 215.176 21.7075 215.176 23.3278C215.176 24.9686 214.874 26.3864 214.269 27.581C213.672 28.7756 212.828 29.699 211.736 30.3512C210.651 30.9966 209.371 31.3192 207.895 31.3192C206.419 31.3192 205.131 30.9863 204.033 30.3203C202.941 29.6475 202.093 28.652 201.489 27.3338C200.892 26.0156 200.593 24.3885 200.593 22.4524V20.8871C200.593 17.2689 201.239 14.5468 202.529 12.7205C203.82 10.8943 205.749 9.95715 208.317 9.90909C209.148 9.88849 209.889 9.88506 210.542 9.89879C211.194 9.90566 211.764 9.87476 212.251 9.80611C212.745 9.73059 213.157 9.55895 213.487 9.29119ZM207.905 28.7344C208.763 28.7344 209.501 28.5181 210.119 28.0856C210.744 27.6462 211.225 27.0249 211.561 26.2216C211.897 25.4183 212.066 24.4709 212.066 23.3793C212.066 22.3082 211.897 21.3986 211.561 20.6502C211.225 19.9019 210.744 19.332 210.119 18.9407C209.495 18.5425 208.746 18.3434 207.874 18.3434C207.229 18.3434 206.652 18.4567 206.144 18.6832C205.636 18.9029 205.2 19.229 204.836 19.6616C204.479 20.0941 204.201 20.6228 204.002 21.2475C203.81 21.8654 203.707 22.576 203.693 23.3793C203.693 25.0133 204.067 26.3143 204.816 27.2823C205.571 28.2504 206.601 28.7344 207.905 28.7344ZM221.633 26.685L228.605 15.1818H231.921V31H228.903V19.4865L221.962 31H218.615V15.1818H221.633V26.685ZM236.061 36.9318V15.1818H239.068V17.7461H239.325C239.504 17.4165 239.761 17.0355 240.098 16.603C240.434 16.1705 240.901 15.7928 241.498 15.4702C242.095 15.1406 242.885 14.9759 243.867 14.9759C245.144 14.9759 246.283 15.2985 247.286 15.9439C248.288 16.5893 249.074 17.5195 249.644 18.7347C250.221 19.9499 250.509 21.4123 250.509 23.1218C250.509 24.8313 250.224 26.2971 249.654 27.5192C249.085 28.7344 248.302 29.6715 247.306 30.3306C246.311 30.9828 245.175 31.3089 243.898 31.3089C242.937 31.3089 242.15 31.1476 241.539 30.8249C240.935 30.5022 240.461 30.1246 240.118 29.6921C239.775 29.2596 239.511 28.8751 239.325 28.5387H239.14V36.9318H236.061ZM239.078 23.0909C239.078 24.2031 239.239 25.178 239.562 26.0156C239.885 26.8532 240.352 27.5089 240.963 27.9826C241.574 28.4495 242.322 28.6829 243.208 28.6829C244.128 28.6829 244.897 28.4392 245.515 27.9517C246.132 27.4574 246.599 26.788 246.915 25.9435C247.238 25.0991 247.399 24.1482 247.399 23.0909C247.399 22.0473 247.241 21.1102 246.925 20.2795C246.616 19.4487 246.15 18.7931 245.525 18.3125C244.907 17.8319 244.135 17.5916 243.208 17.5916C242.315 17.5916 241.56 17.8216 240.942 18.2816C240.331 18.7416 239.868 19.3835 239.552 20.2074C239.236 21.0312 239.078 21.9924 239.078 23.0909ZM256.977 26.685L263.948 15.1818H267.265V31H264.247V19.4865L257.306 31H253.959V15.1818H256.977V26.685ZM282.125 21.7624V24.4297H273.557V21.7624H282.125ZM274.422 15.1818V31H271.404V15.1818H274.422ZM284.277 15.1818V31H281.27V15.1818H284.277ZM286.435 17.8388V15.1818H299.781V17.8388H294.622V31H291.615V17.8388H286.435ZM93.9767 50.7273H95.3084L97.6238 56.3807H97.709L100.024 50.7273H101.356V58H100.312V52.7372H100.244L98.0996 57.9893H97.2331L95.0882 52.7337H95.0208V58H93.9767V50.7273ZM105.217 58.1101C104.68 58.1101 104.217 57.9953 103.828 57.7656C103.443 57.5336 103.144 57.2081 102.934 56.7891C102.725 56.3677 102.621 55.8741 102.621 55.3082C102.621 54.7495 102.725 54.2571 102.934 53.831C103.144 53.4048 103.438 53.0722 103.814 52.8331C104.193 52.594 104.636 52.4744 105.142 52.4744C105.45 52.4744 105.748 52.5253 106.037 52.6271C106.326 52.7289 106.585 52.8887 106.815 53.1065C107.045 53.3243 107.226 53.6072 107.358 53.9553C107.491 54.3009 107.557 54.7211 107.557 55.2159V55.5923H103.221V54.7969H106.517C106.517 54.5175 106.46 54.2701 106.346 54.0547C106.233 53.8369 106.073 53.6652 105.867 53.5398C105.663 53.4143 105.424 53.3516 105.15 53.3516C104.851 53.3516 104.591 53.425 104.368 53.5717C104.148 53.7161 103.978 53.9055 103.857 54.1399C103.739 54.3719 103.679 54.6241 103.679 54.8963V55.5178C103.679 55.8823 103.743 56.1925 103.871 56.4482C104.001 56.7038 104.182 56.8991 104.414 57.0341C104.646 57.1667 104.917 57.233 105.228 57.233C105.429 57.233 105.612 57.2045 105.778 57.1477C105.944 57.0885 106.087 57.0009 106.208 56.8849C106.328 56.7689 106.421 56.6257 106.485 56.4553L107.49 56.6364C107.409 56.9323 107.265 57.1915 107.056 57.4141C106.85 57.6342 106.591 57.8059 106.279 57.929C105.969 58.0497 105.615 58.1101 105.217 58.1101ZM111.033 58.1101C110.505 58.1101 110.05 57.9905 109.669 57.7514C109.29 57.5099 108.999 57.1773 108.796 56.7536C108.592 56.3298 108.49 55.8445 108.49 55.2976C108.49 54.7436 108.594 54.2547 108.803 53.831C109.011 53.4048 109.305 53.0722 109.683 52.8331C110.062 52.594 110.508 52.4744 111.022 52.4744C111.436 52.4744 111.806 52.5514 112.13 52.7053C112.454 52.8568 112.716 53.0698 112.915 53.3445C113.116 53.6191 113.236 53.9399 113.274 54.3068H112.24C112.183 54.0511 112.053 53.831 111.85 53.6463C111.648 53.4616 111.378 53.3693 111.04 53.3693C110.744 53.3693 110.485 53.4474 110.262 53.6037C110.042 53.7576 109.87 53.9777 109.747 54.2642C109.624 54.5483 109.563 54.8845 109.563 55.2727C109.563 55.6705 109.623 56.0137 109.744 56.3026C109.865 56.5914 110.035 56.8151 110.255 56.9737C110.478 57.1323 110.739 57.2116 111.04 57.2116C111.241 57.2116 111.423 57.175 111.587 57.1016C111.753 57.0258 111.891 56.9181 112.002 56.7784C112.116 56.6387 112.195 56.4706 112.24 56.2741H113.274C113.236 56.6269 113.121 56.9418 112.929 57.2188C112.737 57.4957 112.481 57.7135 112.159 57.8722C111.839 58.0308 111.464 58.1101 111.033 58.1101ZM113.996 53.4616V52.5455H118.599V53.4616H116.819V58H115.782V53.4616H113.996ZM121.765 58.1101C121.254 58.1101 120.808 57.9929 120.426 57.7585C120.045 57.5241 119.749 57.1963 119.539 56.7749C119.328 56.3535 119.223 55.861 119.223 55.2976C119.223 54.7318 119.328 54.237 119.539 53.8132C119.749 53.3894 120.045 53.0604 120.426 52.826C120.808 52.5916 121.254 52.4744 121.765 52.4744C122.277 52.4744 122.723 52.5916 123.104 52.826C123.485 53.0604 123.781 53.3894 123.992 53.8132C124.203 54.237 124.308 54.7318 124.308 55.2976C124.308 55.861 124.203 56.3535 123.992 56.7749C123.781 57.1963 123.485 57.5241 123.104 57.7585C122.723 57.9929 122.277 58.1101 121.765 58.1101ZM121.769 57.2188C122.1 57.2188 122.375 57.1312 122.593 56.956C122.81 56.7808 122.971 56.5476 123.076 56.2564C123.182 55.9652 123.235 55.6444 123.235 55.294C123.235 54.946 123.182 54.6264 123.076 54.3352C122.971 54.0417 122.81 53.8061 122.593 53.6286C122.375 53.451 122.1 53.3622 121.769 53.3622C121.435 53.3622 121.158 53.451 120.938 53.6286C120.72 53.8061 120.558 54.0417 120.451 54.3352C120.347 54.6264 120.295 54.946 120.295 55.294C120.295 55.6444 120.347 55.9652 120.451 56.2564C120.558 56.5476 120.72 56.7808 120.938 56.956C121.158 57.1312 121.435 57.2188 121.769 57.2188ZM131.627 52.5455V53.4616H129.187V58H128.14V52.5455H131.627ZM131.767 59.5732V57.0803H132.211C132.325 56.9761 132.42 56.8518 132.499 56.7074C132.579 56.563 132.647 56.3913 132.701 56.1925C132.758 55.9936 132.805 55.7616 132.843 55.4964C132.881 55.2289 132.914 54.9235 132.942 54.5803L133.113 52.5455H136.82V57.0803H137.658V59.5732H136.621V58H132.818V59.5732H131.767ZM133.347 57.0803H135.783V53.4545H134.065L133.951 54.5803C133.897 55.1532 133.828 55.6503 133.745 56.0717C133.662 56.4908 133.53 56.8269 133.347 57.0803ZM141.047 58.1101C140.51 58.1101 140.047 57.9953 139.659 57.7656C139.273 57.5336 138.974 57.2081 138.764 56.7891C138.555 56.3677 138.451 55.8741 138.451 55.3082C138.451 54.7495 138.555 54.2571 138.764 53.831C138.974 53.4048 139.268 53.0722 139.644 52.8331C140.023 52.594 140.466 52.4744 140.972 52.4744C141.28 52.4744 141.579 52.5253 141.867 52.6271C142.156 52.7289 142.415 52.8887 142.645 53.1065C142.875 53.3243 143.056 53.6072 143.188 53.9553C143.321 54.3009 143.387 54.7211 143.387 55.2159V55.5923H139.051V54.7969H142.347C142.347 54.5175 142.29 54.2701 142.176 54.0547C142.063 53.8369 141.903 53.6652 141.697 53.5398C141.493 53.4143 141.254 53.3516 140.98 53.3516C140.681 53.3516 140.421 53.425 140.198 53.5717C139.978 53.7161 139.808 53.9055 139.687 54.1399C139.569 54.3719 139.509 54.6241 139.509 54.8963V55.5178C139.509 55.8823 139.573 56.1925 139.701 56.4482C139.831 56.7038 140.012 56.8991 140.244 57.0341C140.477 57.1667 140.748 57.233 141.058 57.233C141.259 57.233 141.442 57.2045 141.608 57.1477C141.774 57.0885 141.917 57.0009 142.038 56.8849C142.159 56.7689 142.251 56.6257 142.315 56.4553L143.32 56.6364C143.239 56.9323 143.095 57.1915 142.887 57.4141C142.681 57.6342 142.421 57.8059 142.109 57.929C141.799 58.0497 141.445 58.1101 141.047 58.1101ZM150.273 56.6861L152.034 52.5455H152.95L150.667 58H149.879L147.642 52.5455H148.547L150.273 56.6861ZM148.252 52.5455V58H147.212V52.5455H148.252ZM152.322 58V52.5455H153.355V58H152.322ZM157.068 58.1101C156.557 58.1101 156.11 57.9929 155.729 57.7585C155.348 57.5241 155.052 57.1963 154.841 56.7749C154.631 56.3535 154.525 55.861 154.525 55.2976C154.525 54.7318 154.631 54.237 154.841 53.8132C155.052 53.3894 155.348 53.0604 155.729 52.826C156.11 52.5916 156.557 52.4744 157.068 52.4744C157.579 52.4744 158.026 52.5916 158.407 52.826C158.788 53.0604 159.084 53.3894 159.295 53.8132C159.505 54.237 159.611 54.7318 159.611 55.2976C159.611 55.861 159.505 56.3535 159.295 56.7749C159.084 57.1963 158.788 57.5241 158.407 57.7585C158.026 57.9929 157.579 58.1101 157.068 58.1101ZM157.072 57.2188C157.403 57.2188 157.678 57.1312 157.895 56.956C158.113 56.7808 158.274 56.5476 158.378 56.2564C158.485 55.9652 158.538 55.6444 158.538 55.294C158.538 54.946 158.485 54.6264 158.378 54.3352C158.274 54.0417 158.113 53.8061 157.895 53.6286C157.678 53.451 157.403 53.3622 157.072 53.3622C156.738 53.3622 156.461 53.451 156.241 53.6286C156.023 53.8061 155.861 54.0417 155.754 54.3352C155.65 54.6264 155.598 54.946 155.598 55.294C155.598 55.6444 155.65 55.9652 155.754 56.2564C155.861 56.5476 156.023 56.7808 156.241 56.956C156.461 57.1312 156.738 57.2188 157.072 57.2188ZM160.233 58L162.346 55.2088L160.258 52.5455H161.494L163.18 54.8111H163.56V52.5455H164.622V54.8111H164.991L166.678 52.5455H167.914L165.837 55.2088L167.939 58H166.678L164.977 55.7273H164.622V58H163.56V55.7273H163.205L161.494 58H160.233ZM172.715 54.8146V55.7344H169.761V54.8146H172.715ZM170.059 52.5455V58H169.018V52.5455H170.059ZM173.457 52.5455V58H172.42V52.5455H173.457ZM177.175 58.1101C176.664 58.1101 176.218 57.9929 175.837 57.7585C175.455 57.5241 175.16 57.1963 174.949 56.7749C174.738 56.3535 174.633 55.861 174.633 55.2976C174.633 54.7318 174.738 54.237 174.949 53.8132C175.16 53.3894 175.455 53.0604 175.837 52.826C176.218 52.5916 176.664 52.4744 177.175 52.4744C177.687 52.4744 178.133 52.5916 178.514 52.826C178.895 53.0604 179.191 53.3894 179.402 53.8132C179.613 54.237 179.718 54.7318 179.718 55.2976C179.718 55.861 179.613 56.3535 179.402 56.7749C179.191 57.1963 178.895 57.5241 178.514 57.7585C178.133 57.9929 177.687 58.1101 177.175 58.1101ZM177.179 57.2188C177.51 57.2188 177.785 57.1312 178.003 56.956C178.221 56.7808 178.382 56.5476 178.486 56.2564C178.592 55.9652 178.646 55.6444 178.646 55.294C178.646 54.946 178.592 54.6264 178.486 54.3352C178.382 54.0417 178.221 53.8061 178.003 53.6286C177.785 53.451 177.51 53.3622 177.179 53.3622C176.845 53.3622 176.568 53.451 176.348 53.6286C176.13 53.8061 175.968 54.0417 175.862 54.3352C175.757 54.6264 175.705 54.946 175.705 55.294C175.705 55.6444 175.757 55.9652 175.862 56.2564C175.968 56.5476 176.13 56.7808 176.348 56.956C176.568 57.1312 176.845 57.2188 177.179 57.2188ZM183.55 58V52.5455H184.612V54.8324H185.123L186.923 52.5455H188.237L186.124 55.1982L188.262 58H186.945L185.3 55.8196H184.612V58H183.55ZM189.787 60.0455C189.629 60.0455 189.484 60.0324 189.354 60.0064C189.224 59.9827 189.127 59.9567 189.063 59.9283L189.319 59.0582C189.513 59.1103 189.685 59.1328 189.837 59.1257C189.989 59.1186 190.122 59.0618 190.238 58.9553C190.357 58.8487 190.461 58.6747 190.551 58.4332L190.682 58.071L188.686 52.5455H189.823L191.204 56.7784H191.261L192.642 52.5455H193.782L191.534 58.728C191.43 59.0121 191.298 59.2524 191.137 59.4489C190.976 59.6477 190.784 59.7969 190.561 59.8963C190.339 59.9957 190.081 60.0455 189.787 60.0455ZM194.78 58V52.5455H199.23V58H198.189V53.4616H195.814V58H194.78ZM201.69 56.5121L204.094 52.5455H205.237V58H204.197V54.0298L201.803 58H200.649V52.5455H201.69V56.5121ZM205.988 53.4616V52.5455H210.591V53.4616H208.812V58H207.775V53.4616H205.988ZM212.513 54.4205H214.097C214.764 54.4205 215.278 54.5862 215.638 54.9176C215.998 55.2491 216.178 55.6764 216.178 56.1996C216.178 56.5405 216.097 56.8471 215.936 57.1193C215.775 57.3916 215.54 57.607 215.229 57.7656C214.919 57.9219 214.542 58 214.097 58H211.714V52.5455H212.754V57.0838H214.097C214.402 57.0838 214.653 57.0045 214.849 56.8459C215.046 56.6849 215.144 56.4801 215.144 56.2315C215.144 55.9687 215.046 55.7545 214.849 55.5888C214.653 55.4207 214.402 55.3366 214.097 55.3366H212.513V54.4205ZM221.055 56.5121L223.459 52.5455H224.603V58H223.562V54.0298L221.169 58H220.015V52.5455H221.055V56.5121ZM229.517 52.5455V53.4616H227.078V58H226.03V52.5455H229.517ZM230.64 60.0455V52.5455H231.676V53.4297H231.765C231.827 53.3161 231.916 53.1847 232.032 53.0355C232.148 52.8864 232.309 52.7562 232.515 52.6449C232.721 52.5312 232.993 52.4744 233.331 52.4744C233.772 52.4744 234.165 52.5857 234.51 52.8082C234.856 53.0308 235.127 53.3516 235.324 53.7706C235.522 54.1896 235.622 54.6939 235.622 55.2834C235.622 55.8729 235.524 56.3783 235.327 56.7997C235.131 57.2187 234.861 57.5419 234.517 57.7692C234.174 57.9941 233.782 58.1065 233.342 58.1065C233.011 58.1065 232.739 58.0509 232.529 57.9396C232.32 57.8284 232.157 57.6982 232.039 57.549C231.92 57.3999 231.829 57.2673 231.765 57.1513H231.701V60.0455H230.64ZM231.68 55.2727C231.68 55.6562 231.736 55.9924 231.847 56.2812C231.958 56.5701 232.119 56.7962 232.33 56.9595C232.541 57.1205 232.799 57.201 233.104 57.201C233.421 57.201 233.686 57.117 233.9 56.9489C234.113 56.7784 234.274 56.5476 234.382 56.2564C234.494 55.9652 234.549 55.6373 234.549 55.2727C234.549 54.9129 234.495 54.5897 234.386 54.3033C234.279 54.0168 234.118 53.7907 233.903 53.625C233.69 53.4593 233.424 53.3764 233.104 53.3764C232.796 53.3764 232.536 53.4557 232.323 53.6143C232.112 53.773 231.952 53.9943 231.843 54.2784C231.734 54.5625 231.68 54.8939 231.68 55.2727ZM237.61 54.4205H239.194C239.862 54.4205 240.376 54.5862 240.735 54.9176C241.095 55.2491 241.275 55.6764 241.275 56.1996C241.275 56.5405 241.195 56.8471 241.034 57.1193C240.873 57.3916 240.637 57.607 240.327 57.7656C240.017 57.9219 239.639 58 239.194 58H236.811V52.5455H237.852V57.0838H239.194C239.5 57.0838 239.751 57.0045 239.947 56.8459C240.144 56.6849 240.242 56.4801 240.242 56.2315C240.242 55.9687 240.144 55.7545 239.947 55.5888C239.751 55.4207 239.5 55.3366 239.194 55.3366H237.61V54.4205ZM242.049 58V52.5455H243.111V58H242.049Z" fill="white"/>
<g filter="url(#filter0_d_23_16)">
<path d="M289 55.7812L294 58.168V52.3945L289 54.7812V55.7812ZM248 55.7812H289.5V54.7812H248V55.7812Z" fill="white"/>
</g>
<g filter="url(#filter1_d_23_16)">
<path d="M48 54.8281L43 57.2149V51.4414L48 53.8281V54.8281ZM89 54.8281H47.5V53.8281H89V54.8281Z" fill="white"/>
</g>
<defs>
<filter id="filter0_d_23_16" x="244" y="52.3945" width="54" height="13.7735" filterUnits="userSpaceOnUse" color-interpolation-filters="sRGB">
<feFlood flood-opacity="0" result="BackgroundImageFix"/>
<feColorMatrix in="SourceAlpha" type="matrix" values="0 0 0 0 0 0 0 0 0 0 0 0 0 0 0 0 0 0 127 0" result="hardAlpha"/>
<feOffset dy="4"/>
<feGaussianBlur stdDeviation="2"/>
<feComposite in2="hardAlpha" operator="out"/>
<feColorMatrix type="matrix" values="0 0 0 0 0 0 0 0 0 0 0 0 0 0 0 0 0 0 0.25 0"/>
<feBlend mode="normal" in2="BackgroundImageFix" result="effect1_dropShadow_23_16"/>
<feBlend mode="normal" in="SourceGraphic" in2="effect1_dropShadow_23_16" result="shape"/>
</filter>
<filter id="filter1_d_23_16" x="39" y="51.4414" width="54" height="13.7735" filterUnits="userSpaceOnUse" color-interpolation-filters="sRGB">
<feFlood flood-opacity="0" result="BackgroundImageFix"/>
<feColorMatrix in="SourceAlpha" type="matrix" values="0 0 0 0 0 0 0 0 0 0 0 0 0 0 0 0 0 0 127 0" result="hardAlpha"/>
<feOffset dy="4"/>
<feGaussianBlur stdDeviation="2"/>
<feComposite in2="hardAlpha" operator="out"/>
<feColorMatrix type="matrix" values="0 0 0 0 0 0 0 0 0 0 0 0 0 0 0 0 0 0 0.25 0"/>
<feBlend mode="normal" in2="BackgroundImageFix" result="effect1_dropShadow_23_16"/>
<feBlend mode="normal" in="SourceGraphic" in2="effect1_dropShadow_23_16" result="shape"/>
</filter>
</defs>
</svg>
